<svg width="6" height="9" viewBox="0 0 6 9" fill="none" xmlns="http://www.w3.org/2000/svg">
<path fill-rule="evenodd" clip-rule="evenodd" d="M0.254407 8.09976C0.0981815 7.94349 0.0104186 7.73156 0.0104186 7.51059C0.0104186 7.28962 0.0981815 7.0777 0.254407 6.92143L2.99857 4.17726L0.254407 1.43309C0.174816 1.35622 0.11133 1.26427 0.0676557 1.1626C0.0239815 1.06093 0.000992977 0.951578 3.14631e-05 0.840929C-0.000930051 0.730279 0.0201553 0.620548 0.0620561 0.518134C0.103957 0.41572 0.165834 0.322677 0.244078 0.244432C0.322322 0.166189 0.415365 0.10431 0.517779 0.0624094C0.620192 0.0205088 0.729925 -0.000576019 0.840575 0.000386238C0.951224 0.00134754 1.06057 0.0243368 1.16224 0.0680113C1.26391 0.111685 1.35587 0.175169 1.43274 0.254761L4.76607 3.5881C4.9223 3.74437 5.01006 3.95629 5.01006 4.17726C5.01006 4.39823 4.9223 4.61015 4.76607 4.76643L1.43274 8.09976C1.27647 8.25599 1.06454 8.34375 0.843574 8.34375C0.622604 8.34375 0.410681 8.25599 0.254407 8.09976Z" fill="white"/>
</svg>
