<svg width="9" height="6" viewBox="0 0 9 6" fill="none" xmlns="http://www.w3.org/2000/svg">
<path fill-rule="evenodd" clip-rule="evenodd" d="M0.243989 0.254407C0.400262 0.0981815 0.612185 0.0104186 0.833155 0.0104186C1.05413 0.0104186 1.26605 0.0981815 1.42232 0.254407L4.16649 2.99857L6.91066 0.254407C6.98753 0.174816 7.07948 0.11133 7.18115 0.0676557C7.28282 0.0239815 7.39217 0.000992977 7.50282 3.14631e-05C7.61347 -0.000930051 7.7232 0.0201553 7.82562 0.0620561C7.92803 0.103957 8.02107 0.165834 8.09932 0.244078C8.17756 0.322322 8.23944 0.415365 8.28134 0.517779C8.32324 0.620192 8.34433 0.729925 8.34336 0.840575C8.3424 0.951224 8.31941 1.06057 8.27574 1.16224C8.23207 1.26391 8.16858 1.35587 8.08899 1.43274L4.75565 4.76607C4.59938 4.9223 4.38746 5.01006 4.16649 5.01006C3.94552 5.01006 3.7336 4.9223 3.57732 4.76607L0.243989 1.43274C0.0877629 1.27647 0 1.06454 0 0.843574C0 0.622604 0.0877629 0.410681 0.243989 0.254407Z" fill="#0F75BC"/>
</svg>
