<svg width="24" height="24" viewBox="0 0 24 24" fill="none" xmlns="http://www.w3.org/2000/svg">
<path d="M12.8933 2.80954L21.4893 9.59454C21.7093 9.76789 21.8698 10.0055 21.9484 10.2743C22.0271 10.5431 22.02 10.8298 21.9281 11.0943C21.8362 11.3589 21.6642 11.5883 21.4359 11.7505C21.2076 11.9128 20.9344 11.9998 20.6543 11.9995H20.0013V15.4995C20.0013 18.3275 20.0013 19.7425 19.1223 20.6205C18.2443 21.4995 16.8293 21.4995 14.0013 21.4995H10.0013C7.17331 21.4995 5.75831 21.4995 4.88031 20.6205C4.00131 19.7425 4.00131 18.3275 4.00131 15.4995V11.9995H3.34831C3.06823 11.9998 2.79503 11.9128 2.56673 11.7505C2.33843 11.5883 2.16638 11.3589 2.07451 11.0943C1.98265 10.8298 1.97555 10.5431 2.05419 10.2743C2.13284 10.0055 2.29332 9.76789 2.51331 9.59454L11.1093 2.80954C11.3634 2.60905 11.6776 2.5 12.0013 2.5C12.325 2.5 12.6392 2.60905 12.8933 2.80954Z" stroke="white" stroke-width="1.5" stroke-linecap="round" stroke-linejoin="round"/>
<path d="M14.5 21.5V17C14.5 16.065 14.5 15.598 14.299 15.25C14.1674 15.022 13.978 14.8326 13.75 14.701C13.402 14.5 12.935 14.5 12 14.5C11.065 14.5 10.598 14.5 10.25 14.701C10.022 14.8326 9.83265 15.022 9.701 15.25C9.5 15.598 9.5 16.065 9.5 17V21.5" stroke="white" stroke-width="1.5" stroke-linecap="round" stroke-linejoin="round"/>
</svg>
